<svg version="1.1" viewBox="0.0 0.0 652.7349081364829 897.509186351706" fill="none" stroke="none" stroke-linecap="square" stroke-miterlimit="10" xmlns:xlink="http://www.w3.org/1999/xlink" xmlns="http://www.w3.org/2000/svg"><clipPath id="p.0"><path d="m0 0l652.7349 0l0 897.5092l-652.7349 0l0 -897.5092z" clip-rule="nonzero"/></clipPath><g clip-path="url(#p.0)"><path fill="#000000" fill-opacity="0.0" d="m0 0l652.7349 0l0 897.5092l-652.7349 0z" fill-rule="evenodd"/><path fill="#6d9eeb" d="m-19.73115 137.8695c21.242281 -46.063858 51.923775 -86.00824 92.04822 -104.3694c40.12445 -18.361156 106.21349 -13.850899 148.69846 -5.7975445c42.484985 8.053354 59.301483 56.694504 106.211395 54.11767c46.909943 -2.5768356 122.732635 -66.35753 175.2482 -69.57869c52.515594 -3.221161 106.50668 20.93845 139.84525 50.25173c33.338562 29.313282 47.794495 86.32883 60.186035 125.627975c12.391541 39.29915 21.538818 59.915665 14.163208 110.16693c-7.3756714 50.25128 -51.040894 134.32474 -58.41693 191.34073c-7.3760376 57.01599 12.980408 100.82587 14.160706 150.75519c1.1802368 49.929382 13.86792 111.45471 -7.0791016 148.82086c-20.947021 37.36621 -75.52826 64.74609 -118.60297 75.37628c-43.074677 10.630188 -96.47525 -12.239441 -139.84521 -11.595093c-43.369965 0.6442871 -68.74359 18.36023 -120.37457 15.460999c-51.630997 -2.899231 -139.5508 -12.884644 -189.41138 -32.856384c-49.8606 -19.97174 -90.57518 -38.655273 -109.752205 -86.97406c-19.177025 -48.318726 1.770814 -129.81628 -5.309947 -202.93854c-7.080759 -73.12222 -36.87976 -167.82678 -37.174614 -235.79489c-0.29485703 -67.96811 14.163185 -125.94989 35.405464 -172.01376z" fill-rule="evenodd"/></g></svg>