<svg version="1.1" viewBox="0.0 0.0 960.503937007874 275.0813648293963" fill="none" stroke="none" stroke-linecap="square" stroke-miterlimit="10" xmlns:xlink="http://www.w3.org/1999/xlink" xmlns="http://www.w3.org/2000/svg"><clipPath id="p.0"><path d="m0 0l960.50397 0l0 275.08136l-960.50397 0l0 -275.08136z" clip-rule="nonzero"/></clipPath><g clip-path="url(#p.0)"><path fill="#000000" fill-opacity="0.0" d="m0 0l960.50397 0l0 275.08136l-960.50397 0z" fill-rule="evenodd"/><path fill="#6d9eeb" d="m54.7979 128.66103c32.72703 -2.5345993 88.794846 1.2686768 112.64305 19.013657c23.848206 17.74498 -6.340332 68.12732 30.446198 87.45622c36.786514 19.328903 133.44443 44.360825 190.27295 28.517197c56.82852 -15.843613 96.91382 -111.2211 150.69818 -123.57887c53.7843 -12.357788 128.3714 41.51039 172.00787 49.432205c43.636475 7.9217987 62.136047 3.6858063 89.811035 -1.9013672c27.674988 -5.5871735 49.09314 -26.868256 76.23883 -31.621674c27.14569 -4.7534027 56.72003 11.773163 86.63519 3.1011963c29.9151 -8.671967 79.40936 -26.931625 92.85565 -55.13302c13.446167 -28.201393 41.09839 -91.89439 -12.178467 -114.07533c-53.276978 -22.18095 -149.68158 -16.475763 -307.48297 -19.01037c-157.80139 -2.534607 -509.1772 1.9019108 -639.3255 3.8027287c-130.14828 1.9008198 -112.896324 -15.8457985 -141.5643 7.6021824c-28.667976 23.44798 -32.98075 102.98294 -30.443573 133.08571c2.5371857 30.10276 24.102364 45.312584 45.66667 47.530846c21.564304 2.2182617 50.992126 -31.686691 83.71916 -34.2213z" fill-rule="evenodd"/><path stroke="#6d9eeb" stroke-width="1.0" stroke-linejoin="round" stroke-linecap="butt" d="m54.7979 128.66103c32.72703 -2.5345993 88.794846 1.2686768 112.64305 19.013657c23.848206 17.74498 -6.340332 68.12732 30.446198 87.45622c36.786514 19.328903 133.44443 44.360825 190.27295 28.517197c56.82852 -15.843613 96.91382 -111.2211 150.69818 -123.57887c53.7843 -12.357788 128.3714 41.51039 172.00787 49.432205c43.636475 7.9217987 62.136047 3.6858063 89.811035 -1.9013672c27.674988 -5.5871735 49.09314 -26.868256 76.23883 -31.621674c27.14569 -4.7534027 56.72003 11.773163 86.63519 3.1011963c29.9151 -8.671967 79.40936 -26.931625 92.85565 -55.13302c13.446167 -28.201393 41.09839 -91.89439 -12.178467 -114.07533c-53.276978 -22.18095 -149.68158 -16.475763 -307.48297 -19.01037c-157.80139 -2.534607 -509.1772 1.9019108 -639.3255 3.8027287c-130.14828 1.9008198 -112.896324 -15.8457985 -141.5643 7.6021824c-28.667976 23.44798 -32.98075 102.98294 -30.443573 133.08571c2.5371857 30.10276 24.102364 45.312584 45.66667 47.530846c21.564304 2.2182617 50.992126 -31.686691 83.71916 -34.2213z" fill-rule="evenodd"/></g></svg>