<svg version="1.1" viewBox="0.0 0.0 304.13385826771656 314.9475065616798" fill="none" stroke="none" stroke-linecap="square" stroke-miterlimit="10" xmlns:xlink="http://www.w3.org/1999/xlink" xmlns="http://www.w3.org/2000/svg"><clipPath id="p.0"><path d="m0 0l304.13385 0l0 314.9475l-304.13385 0l0 -314.9475z" clip-rule="nonzero"/></clipPath><g clip-path="url(#p.0)"><path fill="#000000" fill-opacity="0.0" d="m0 0l304.13385 0l0 314.9475l-304.13385 0z" fill-rule="evenodd"/><path fill="#000000" fill-opacity="0.0" d="m65.63517 409.96588l148.94489 0l0 248.0315l-148.94489 0z" fill-rule="evenodd"/><path fill="#6d9eeb" d="m-8.000069 56.062775c8.899825 -46.782154 23.733158 -34.45888 50.66142 -42.446198c26.928257 -7.9873137 83.52318 -12.779964 110.90814 -5.4776897c27.384949 7.3022747 31.721786 34.458004 53.401566 49.29134c21.679794 14.833328 62.985123 13.921257 76.67717 39.708656c13.692047 25.787407 13.690735 86.489944 5.475067 115.01575c-8.215668 28.525818 -23.961517 43.587936 -54.769028 56.1391c-30.807526 12.5512085 -89.22748 14.832031 -130.07611 19.168c-40.84864 4.3359375 -96.30271 45.414246 -115.01575 6.847748c-18.713036 -38.566483 -6.1622915 -191.46455 2.7375326 -238.2467z" fill-rule="evenodd"/></g></svg>